<svg xmlns="http://www.w3.org/2000/svg" version="1.0" width="889.000000pt" height="500.000000pt" viewBox="0 0 889.000000 500.000000" preserveAspectRatio="xMidYMid meet">

<g transform="translate(0.000000,500.000000) scale(0.100000,-0.100000)" fill="#0560af" stroke="none">
<path d="M2314 4218 c3 -211 9 -538 13 -727 l6 -345 -49 41 c-108 89 -291 184 -441 229 -125 37 -337 45 -473 16 -210 -43 -347 -119 -510 -282 -122 -122 -182 -209 -234 -341 -49 -126 -60 -191 -60 -369 0 -140 3 -178 22 -250 44 -165 128 -314 251 -443 95 -100 184 -165 302 -221 152 -74 224 -89 424 -90 148 -1 181 2 255 22 108 29 279 112 405 197 54 36 99 65 99 65 1 0 -2 -37 -6 -82 -3 -46 -7 -102 -7 -125 l-1 -43 140 0 140 0 0 1565 0 1565 -142 0 -141 0 7 -382z m-574 -1054 c254 -59 494 -299 554 -554 23 -97 21 -268 -5 -360 -71 -258 -303 -482 -555 -535 -89 -19 -230 -19 -319 0 -200 43 -397 201 -494 399 -52 105 -72 193 -72 321 0 227 72 388 245 553 95 89 209 153 317 177 87 18 249 18 329 -1z" fill="#0560af"/>
<path d="M2986 4028 c-54 -32 -76 -77 -76 -158 0 -110 49 -171 148 -186 96 -14 183 21 218 88 18 35 18 149 0 192 -24 58 -69 81 -166 84 -74 2 -90 0 -124 -20z" fill="#0560af"/>
<path d="M5960 4039 c-70 -29 -110 -117 -96 -211 15 -103 69 -143 191 -143 99 0 139 20 173 85 20 38 23 56 19 113 -5 73 -20 103 -71 141 -22 17 -45 21 -109 23 -45 2 -93 -2 -107 -8z" fill="#0560af"/>
<path d="M4364 3435 c-400 -62 -741 -382 -832 -780 -25 -110 -22 -346 6 -459 91 -367 408 -673 777 -751 96 -21 302 -24 394 -6 148 29 315 103 479 212 l72 49 0 -49 c0 -27 -7 -88 -15 -136 -49 -277 -210 -475 -460 -561 -73 -26 -93 -28 -220 -28 -164 -1 -223 12 -362 80 -152 73 -274 205 -432 468 l-71 119 0 -261 0 -261 51 -61 c120 -145 332 -274 534 -326 311 -80 653 -17 885 161 181 139 292 324 353 590 20 87 21 121 24 1033 l4 942 -147 0 -146 0 5 -22 c3 -13 8 -63 12 -113 4 -49 9 -99 12 -109 4 -15 -5 -11 -38 16 -49 40 -227 148 -286 174 -196 84 -397 111 -599 79z m360 -280 c221 -59 425 -251 501 -472 71 -203 47 -437 -62 -626 -49 -84 -201 -233 -280 -275 -185 -97 -393 -115 -584 -48 -102 35 -172 80 -266 170 -97 92 -160 187 -200 301 -26 74 -28 92 -28 230 0 130 3 159 23 220 89 269 329 474 607 519 56 8 230 -3 289 -19z" fill="#0560af"/>
<path d="M7270 3431 c-181 -39 -334 -120 -472 -250 -152 -143 -240 -280 -294 -456 -26 -84 -28 -103 -28 -270 -1 -158 2 -190 22 -264 95 -349 384 -641 722 -733 74 -20 108 -23 270 -23 161 0 196 3 270 23 342 92 622 381 716 737 23 87 27 120 27 250 0 130 -4 163 -26 249 -93 348 -374 631 -722 726 -116 32 -365 37 -485 11z m451 -288 c158 -55 309 -181 399 -332 124 -208 133 -473 25 -697 -71 -147 -222 -294 -368 -359 -197 -87 -467 -69 -651 42 -310 189 -446 543 -335 877 53 160 212 344 366 424 127 66 203 83 353 79 108 -3 137 -7 211 -34z" fill="#0560af"/>
<path d="M2960 2440 l0 -970 140 0 140 0 0 970 0 970 -140 0 -140 0 0 -970z" fill="#0560af"/>
<path d="M5917 3403 c-4 -3 -7 -440 -7 -970 l0 -963 145 0 145 0 0 970 0 970 -138 0 c-76 0 -142 -3 -145 -7z" fill="#0560af"/>
</g>
</svg>