<svg width="20" height="20" viewBox="0 0 20 20" fill="none" xmlns="http://www.w3.org/2000/svg">
<path d="M3.656 18.8667C3.51242 18.9915 3.3362 19.0728 3.14803 19.101C2.95987 19.1292 2.76756 19.1032 2.59369 19.0259C2.41982 18.9486 2.2716 18.8233 2.16644 18.6648C2.06128 18.5062 2.00354 18.3209 2 18.1307V15.8877C1.46957 15.8877 0.960859 15.677 0.585786 15.3019C0.210714 14.9268 0 14.4181 0 13.8877V6.8877C0 6.35726 0.210714 5.84855 0.585786 5.47348C0.960859 5.09841 1.46957 4.8877 2 4.8877H13C13.5304 4.8877 14.0391 5.09841 14.4142 5.47348C14.7893 5.84855 15 6.35726 15 6.8877V13.8877C15 14.4181 14.7893 14.9268 14.4142 15.3019C14.0391 15.677 13.5304 15.8877 13 15.8877H8.003L3.656 18.8667ZM16 10.9047C15.9968 11.0277 15.9968 11.1507 16 11.2737V10.9037C16.005 10.7967 16.006 9.4567 16.004 6.8847C16.0032 6.08957 15.6868 5.32727 15.1243 4.76531C14.5617 4.20335 13.7991 3.88769 13.004 3.8877H5V2.8877C5 2.35726 5.21071 1.84855 5.58579 1.47348C5.96086 1.09841 6.46957 0.887695 7 0.887695L18 0.887695C18.5304 0.887695 19.0391 1.09841 19.4142 1.47348C19.7893 1.84855 20 2.35726 20 2.8877V9.8877C20 10.4181 19.7893 10.9268 19.4142 11.3019C19.0391 11.677 18.5304 11.8877 18 11.8877V14.1307C17.9965 14.3209 17.9387 14.5062 17.8336 14.6648C17.7284 14.8233 17.5802 14.9486 17.4063 15.0259C17.2324 15.1032 17.0401 15.1292 16.852 15.101C16.6638 15.0728 16.4876 14.9915 16.344 14.8667L16 14.6307V10.9047Z" fill="black"/>
</svg>
