<svg width="24" height="25" viewBox="0 0 24 25" fill="none" xmlns="http://www.w3.org/2000/svg">
<path d="M14.293 2.79303C14.4805 2.60556 14.7348 2.50024 15 2.50024C15.2652 2.50024 15.5195 2.60556 15.707 2.79303L19.707 6.79303C19.8945 6.98056 19.9998 7.23487 19.9998 7.50003C19.9998 7.76519 19.8945 8.0195 19.707 8.20703L15.707 12.207C15.5184 12.3892 15.2658 12.49 15.0036 12.4877C14.7414 12.4854 14.4906 12.3803 14.3052 12.1948C14.1198 12.0094 14.0146 11.7586 14.0123 11.4964C14.01 11.2342 14.1108 10.9816 14.293 10.793L16.586 8.50003H5C4.73478 8.50003 4.48043 8.39467 4.29289 8.20714C4.10536 8.0196 4 7.76525 4 7.50003C4 7.23481 4.10536 6.98046 4.29289 6.79292C4.48043 6.60539 4.73478 6.50003 5 6.50003H16.586L14.293 4.20703C14.1055 4.0195 14.0002 3.76519 14.0002 3.50003C14.0002 3.23487 14.1055 2.98056 14.293 2.79303ZM9.707 12.793C9.89447 12.9806 9.99979 13.2349 9.99979 13.5C9.99979 13.7652 9.89447 14.0195 9.707 14.207L7.414 16.5H19C19.2652 16.5 19.5196 16.6054 19.7071 16.7929C19.8946 16.9805 20 17.2348 20 17.5C20 17.7652 19.8946 18.0196 19.7071 18.2071C19.5196 18.3947 19.2652 18.5 19 18.5H7.414L9.707 20.793C9.88916 20.9816 9.98995 21.2342 9.98767 21.4964C9.9854 21.7586 9.88023 22.0094 9.69482 22.1948C9.50941 22.3803 9.2586 22.4854 8.9964 22.4877C8.7342 22.49 8.4816 22.3892 8.293 22.207L4.293 18.207C4.10553 18.0195 4.00021 17.7652 4.00021 17.5C4.00021 17.2349 4.10553 16.9806 4.293 16.793L8.293 12.793C8.48053 12.6056 8.73484 12.5002 9 12.5002C9.26516 12.5002 9.51947 12.6056 9.707 12.793Z" fill="black"/>
</svg>
